<?xml version="1.0" encoding="UTF-8"?>
<svg id="_レイヤー_2" data-name="レイヤー 2" xmlns="http://www.w3.org/2000/svg" viewBox="0 0 139 152.19">
  <defs>
    <style>
      .cls-1 {
        fill: none;
        stroke: #fff;
        stroke-miterlimit: 10;
        stroke-width: 3px;
      }

      .cls-2 {
        fill: #fff;
      }
    </style>
  </defs>
  <g id="_レイヤー_1-2" data-name="レイヤー 1">
    <g>
      <path class="cls-2" d="M94.96,104.36c-.42-.21-.79-.08-1.1,.15,.24-.32,.55-.72,.96-1.26,1.79-2.35,2.35-2.48,1.66-7.31-.69-4.83-7.18-6.07-11.73-6.07s-5.52,5.93-5.52,5.93c0,0-.39-1.37-2.22-2.27-.27-1.16-.5-2.1-.66-2.77-1.18-4.71-1.3-8.13-1.1-10.43,2.6-.57,2.05-2.29,3.5-2.41,1.73-.14,3.75-1.59,4.91-3.32,1.15-1.73,2.02-5.63,3.03-6.49,1.01-.87-.87-3.32-.87-3.32,0,0,.87-2.16,.58-3.03-.29-.87-3.32-3.03-4.47-3.03s-5.92,.14-6.49,.14-1.73,1.73-1.73,1.73c-2.74-.14-2.45-1.3-3.9-.87s-4.33,.43-4.76,.43-3.32,0-4.33,1.15c0,0-.01,.02-.02,.02-1.1-1.86-2.22-3.37-3.2-4.56,1.28-2.82,2.84-7.78,3.64-9.38,1.04-2.09-1.17-1.7-.39-3.26,.78-1.57-1.04-4.18-1.04-5.35s-3.39-2.22-3.65-3c-.26-.78-2.61-1.17-1.96-2.48s.13-6-.39-9-2.87-3.78-4.31-3.78-4.7-2.61-7.31-1.96-1.17,2.09-3,3c-1.83,.91,.52-1.57-2.48,.26s-1.83,2.87-4.44,4.44c-2.61,1.57-2.35,4.7-2.35,5.35s-.78,1.96-.78,4.31,2.09,2.87,7.05,5.48l-1.17,.26c-1.17,.26-1.83,2.48-3.13,2.87-1.3,.39-.26,2.09-1.57,2.61-1.3,.52-.65,1.7-1.17,3.26-.52,1.57-.26,4.96-1.17,5.74-.91,.78,2.74,2.22,4.31,2.35s2.09,3.26,7.18,5.61c4.03,1.86,6.09-.37,7.95-1.38,3.24,5.88,9.28,17.34,11.74,25.2,1.62,5.17,2.34,21.07,.72,32.42s.72,25.44,.72,25.44c0,0,.19,5.58,1.88,5.49,1.69-.08,.64-5.49,.64-5.49,0,0-3.39-9.38-1.92-22,.89-7.58,1.31-13.73,1.41-18.75,.72,.65,1.58,.99,1.58,.99h-.97s.28,1.93,2.21,3.59c.22,.19,.46,.35,.69,.5,.8,7.63,1.68,13.84,2.16,16.99,.16,1.08,.61,2.09,1.31,2.94,1.41,1.73,3.41,3.08,.78-7.44-1.1-4.38-1.91-8.16-2.52-11.79,1.18,.28,2.14,.19,2.14,.19,.97,.28,2.76,3.59,6.76,3.73,.32,.01,.58,0,.81-.01,.23,6,.35,13.02-.01,18.39,0,0-1.23,10.81,.3,10.81,1.67,0,1.28-10.81,1.28-10.81,.23-6.62,.26-13.47,.14-19.25,.14-.06,.36-.06,.74,.01,.41,2.66,.92,6.24,1.7,11.59,1.39,7.39,4.77,25.74,7.46,26.61,0,0,.84,.87,1.28-1.57,.44-2.44-3.76-6.09-7.35-25.58-.38-3.14-.97-6.84-1.65-10.64,.18,.06,.35,.11,.55,.18,4.83,1.66,6.76,1.93,11.04,.28,4.28-1.66,4.28-6.62,4-8.28-.28-1.66-.83-1.52-1.93-2.07Zm-31.32-4.42c-.48,.38-.86,.75-1.16,1.1-.12-6.42-.86-10.65-1.83-13.65-3.04-9.31-8.61-20.18-11.28-25.17,2.35-.33,5.76-2.34,7.01-3.54,1.04,1.13,2.11,2.49,3.12,4.12-.9,1.2-1.81,2.74-1.81,4.29,0,2.31-.87,4.91,.29,5.34,.57,.21,3.08,2.16,6.07,4.09,.18,1.59,.29,3.28,.29,5.09,0,5.76,.27,11.66,.67,17.27-.4,.3-.84,.64-1.36,1.06Zm6.07-3.73c-1.47,1.16-1.35,.4-3.41,1.74-.28-4.87-.37-10.35-.41-17.32,0-1.05-.05-2.07-.13-3.05,2.66,1.59,5.46,2.92,7.51,2.92,.04,0,.08,0,.12,0,0,3.04,.32,6.79,1.37,11.05,.12,.47,.23,.92,.34,1.36-.46-.08-.95-.14-1.51-.15-4.83-.14-1.93,1.93-3.86,3.45Z"/>
      <path class="cls-2" d="M108.84,132.43c.07-1.19-.35-3.41-.44-6.23-.18-5.42,.14-6.6-.85-15.46-.82-7.38-4.68-15.9-5.8-18.25,.24,.03,.64-.47,1.33-2.56,1.4-4.26-3.93-9.16-6.01-8.4-2.67,.98-2.08,7.51-1.06,9.72,1.02,2.21,3.99,1.82,4.22,2.22,.49,.86,5.43,6.91,6.48,21.85,.33,4.7,.24,8.75,.38,13.08-.27,7.36-2.5,13.12,.14,12.92,2.64-.2,1.55-4.91,1.62-8.89Z"/>
    </g>
    <circle class="cls-1" cx="69.5" cy="69.5" r="68"/>
  </g>
</svg>