<?xml version="1.0" encoding="UTF-8"?>
<svg id="_レイヤー_2" data-name="レイヤー 2" xmlns="http://www.w3.org/2000/svg" viewBox="0 0 602.3 437.94">
  <defs>
    <style>
      .cls-1 {
        fill: #fff;
        stroke: #fff;
        stroke-miterlimit: 10;
        stroke-width: .75px;
      }
    </style>
  </defs>
  <g id="_レイヤー_1-2" data-name="レイヤー 1">
    <path class="cls-1" d="M417.6,146.77c51.24-9.98,64.55-11.98,64.55-11.98,7.99-1.33,10.65-3.99,10.65-7.32,0-2.66-1.33-4.66-3.33-6.65-8.65-8.65-25.95-23.96-31.28-29.95-.67-.67-1.33-2-1.33-3.33,0-2,1.33-3.33,3.33-3.33,1.33,0,3.33,.67,5.99,2.66,29.94,21.96,66.54,37.26,81.18,42.59,10.65,3.99,17.97,4.66,33.27,11.98,14.64,7.32,21.29,15.97,21.29,22.62,0,7.99-7.99,13.97-21.29,13.97-6.65,0-13.97-1.33-21.96-3.99-24.62-7.32-51.9-10.65-79.19-10.65-21.29,0-42.59,2-63.22,4.66-11.98,130.42-54.57,157.71-79.19,157.71-9.32,0-15.97-5.99-15.97-13.31-.67-23.29-25.29-50.57-40.59-65.88-3.99-3.99-5.99-7.32-5.99-9.32,0-.67,.67-1.33,2-1.33,2,0,5.99,1.33,9.98,4.66,21.96,17.97,41.92,27.28,57.23,27.28,19.3,0,39.26-10.65,48.58-95.82-53.9,8.65-113.12,27.28-164.36,47.25,2,44.58,5.32,89.83,10.65,123.11,7.99,51.24,49.24,64.55,88.5,64.55,30.61,0,60.55-7.98,72.53-12.64,7.99-2.66,14.64-3.99,21.29-3.99,16.64,0,27.95,7.99,27.95,17.3,0,25.95-90.5,29.94-108.47,29.94-74.53,0-120.44-29.94-128.43-91.17-3.33-27.95-6.65-73.2-9.98-117.12-51.9,21.96-82.51,39.93-83.84,40.59-15.3,8.65-27.95,14.64-44.58,14.64-.67,0-73.2-6.65-73.2-50.57,0-7.99,4.66-7.99,5.32-7.99,3.99,0,8.65,2,9.32,2.66,16.64,14.64,28.61,17.97,45.25,17.97,20.63,0,36.6-5.32,53.9-11.98,25.95-9.98,54.57-19.96,85.84-29.94-2.66-33.27-5.32-63.22-8.65-81.85s-21.96-33.94-28.61-40.59c-3.33-3.33-3.99-5.32-3.99-7.99,0-6.65,13.97-10.65,23.96-10.65,3.33,0,6.65,.67,9.32,2,25.29,12.64,35.27,21.29,35.27,60.55v6.65c-.67,13.97-.67,28.61-.67,43.92v19.3c102.48-31.28,117.12-33.94,167.69-44.58,1.33-13.97,1.33-28.61,1.33-41.26,0-23.29,0-83.18-21.29-88.5-6.66-1.33-9.32-4.66-9.32-7.32,0-7.32,12.64-13.97,24.62-13.97s35.27,7.99,35.27,41.92c0,15.3-3.33,35.27-4.66,61.22l-2.66,43.25Z"/>
  </g>
</svg>