<?xml version="1.0" encoding="UTF-8"?>
<svg id="_レイヤー_2" data-name="レイヤー 2" xmlns="http://www.w3.org/2000/svg" viewBox="0 0 556.69 625.06">
  <defs>
    <style>
      .cls-1 {
        fill: #fff;
        stroke: #fff;
        stroke-miterlimit: 10;
        stroke-width: 4px;
      }
    </style>
  </defs>
  <g id="_レイヤー_1-2" data-name="レイヤー 1">
    <path class="cls-1" d="M142.46,325.89c1.66,0,4.99-3.14,7.48-5.5,80.62-57.39,144.61-95.91,228.56-95.91,114.69,0,176.2,83.33,176.2,146.22,0,164.3-320.81,252.35-369.01,252.35-4.99,0-7.48-.79-7.48-2.36,0-3.93,9.97-10.22,24.1-14.94,272.61-87.26,301.69-198.11,301.69-238.2,0-43.24-40.72-110.06-133.81-110.06-41.56,0-84.77,13.36-118.02,29.09-81.45,37.74-128.82,89.62-173.7,149.37-10.8,14.15-13.3,25.16-20.78,39.31-7.48,14.15-19.12,20.44-29.92,20.44-13.3,0-25.76-10.22-25.76-27.51,0-14.94,9.14-35.38,32.41-58.17,5.82-5.5,15.79-12.58,21.61-19.65,9.97-11.79,24.1-26.73,38.23-47.17,19.12-28.3,40.72-58.96,64.83-88.05C306.19,74.33,308.68,67.25,308.68,55.46c0-3.93-.83-19.65-27.43-19.65-9.14,0-17.45,3.14-25.76,10.22-14.96,12.58-52.36,47.17-58.18,51.1-18.28,11.79-34.08,16.51-48.2,16.51-34.08,0-59.01-34.59-59.01-47.96,0-3.93,2.49-4.72,5.82-4.72,4.16,0,10.8,1.57,16.62,3.14,6.65,2.36,14.13,3.14,22.44,3.14,36.57,0,53.19-9.43,106.38-45.6,19.95-13.36,39.89-19.65,59.84-19.65,14.13,0,73.97,10.22,73.97,41.67,0,14.94-14.96,32.23-31.58,47.17-89.76,81.76-201.13,222.48-201.13,234.27v.79Z"/>
  </g>
</svg>