<?xml version="1.0" encoding="UTF-8"?>
<svg id="_レイヤー_2" data-name="レイヤー 2" xmlns="http://www.w3.org/2000/svg" viewBox="0 0 773.61 721.75">
  <defs>
    <style>
      .cls-1 {
        fill: #fff;
        stroke: #fff;
        stroke-miterlimit: 10;
        stroke-width: 4px;
      }
    </style>
  </defs>
  <g id="_レイヤー_1-2" data-name="レイヤー 1">
    <path class="cls-1" d="M763.3,661.58c5.82,0,8.31,.79,8.31,1.57,0,4.72-63.17,21.23-85.6,41.67-2.49,2.36-4.99,3.14-7.48,3.14-.83,0-183.68-55.03-241.02-231.91-54.02,231.13-324.14,243.71-343.25,243.71-7.48,0-10.8-1.57-10.8-3.14,0-2.36,8.31-6.29,18.28-7.86,173.7-31.45,277.59-128.14,298.37-250.78-56.52,.79-130.49,2.36-178.69,7.08h-1.66c-13.3,0-31.58-21.23-37.4-33.8C142.46,649.79,7.82,696.96,3.66,696.96c-.83,0-1.66-.79-1.66-1.57,0-1.57,4.99-7.08,16.62-16.51,115.52-92.76,132.15-256.28,132.15-371.06s-10.8-161.16-13.3-169.81c-.83-1.57-.83-2.36-.83-3.14,0-1.57,.83-1.57,2.49-1.57,.83,0,3.32,0,5.82,.79,1.66,.79,52.36,20.44,74.8,30.66h361.54c4.16,0,9.97,0,13.3-4.72,4.16-4.72,15.79-18.08,20.78-20.44,2.49-1.57,4.99-2.36,6.65-2.36,14.13,0,64.83,36.95,64.83,49.53,0,7.08-7.48,11.79-15.79,16.51-22.44,11.01-24.93,3.14-27.43,25.16v2.36c0,14.15,4.16,69.97,5.82,88.83v.79c0,8.65-9.14,22.01-30.75,22.01-9.14,0-17.45-4.72-17.45-16.51v-2.36c.83-5.5,1.66-11.79,1.66-19.65H193.99c-.83,33.02-2.49,75.47-10.8,121.85,58.18,6.29,152.09,9.43,219.41,11.01,.83-9.43,.83-18.08,.83-27.52,0-27.51,0-46.38-3.32-71.54v-3.14c0-.79,0-1.57,1.66-1.57,.83,0,78.96,3.14,78.96,22.8,0,4.72-4.16,9.43-14.96,14.15-14.13,6.29-18.28-2.36-19.95,40.88,0,9.43-.83,18.08-1.66,26.73,11.64,0,21.61,.79,28.26,.79h114.69c4.99,0,11.64-3.14,14.13-7.08,33.24-42.45,37.4-45.6,43.22-45.6,19.95,0,74.8,48.74,74.8,62.11,0,4.72-3.32,10.22-17.45,10.22H444.98c56.52,134.43,201.13,203.61,314.16,203.61h4.16ZM323.64,79.83c-46.54,0-159.57,2.36-235.21,9.43h-.83c-15.79,0-36.57-30.66-36.57-40.88v-.79c86.44,10.22,229.39,12.58,277.59,12.58h272.61c5.82,0,11.64-3.14,14.13-7.08C649.44,2.79,659.41,2,664.4,2c2.49,0,4.16,0,5.82,.79,28.26,9.43,73.97,59.75,73.97,67.61,0,4.72-4.16,9.43-18.28,9.43H323.64Zm280.09,186.32c0-33.02-1.66-65.25-1.66-70.75,0-3.93-3.32-9.43-11.64-9.43H213.93l-2.49,1.57c-14.13,7.08-16.62,4.72-16.62,33.02v29.87c0,4.72,.83,8.65,.83,13.36,0,5.5-.83,11.79-.83,18.87h408.91v-16.51Z"/>
  </g>
</svg>