<?xml version="1.0" encoding="UTF-8"?>
<svg id="_レイヤー_2" data-name="レイヤー 2" xmlns="http://www.w3.org/2000/svg" viewBox="0 0 315.5 567.04">
  <defs>
    <style>
      .cls-1 {
        fill: #fff;
        stroke: #fff;
        stroke-miterlimit: 10;
        stroke-width: .75px;
      }
    </style>
  </defs>
  <g id="_レイヤー_1-2" data-name="レイヤー 1">
    <path class="cls-1" d="M116.83,43.63c-2-13.97-13.97-25.95-17.3-31.94-.67-1.33-4.66-6.65-4.66-9.32,0-.67,.67-2,2.66-2,3.33,0,82.51,31.94,82.51,74.53,0,15.31-11.31,28.61-22.62,28.61-7.32,0-14.64-3.33-21.29-5.99-8.65-3.33-23.96-4.66-37.93-4.66-17.3,0-59.89,2-59.89,52.57,0,5.32,.67,10.65,1.33,14.64,2.66,11.31,3.99,19.96,3.99,28.61,0,14.64-3.99,29.94-9.98,60.55-5.99,28.61-9.32,58.56-9.32,83.18,0,57.23,16.64,60.55,25.29,60.55,6.65,0,14.64-4.66,25.29-11.31,15.97-10.65,33.94-31.28,65.88-53.24,19.3-13.97,45.25-21.96,69.21-21.96,35.27,0,105.14,29.28,105.14,93.83,0,99.82-137.75,166.36-248.21,166.36-3.33,0-5.32,0-5.32-.67,0-1.33,9.32-4.66,31.28-9.98,151.72-37.26,186.32-116.45,186.32-155.05,0-41.26-36.6-71.87-79.85-71.87-15.97,0-32.61,4.66-47.25,15.97-31.28,23.29-41.92,41.92-73.2,81.18-10.65,12.64-18.63,17.97-25.95,17.97-7.99,0-52.57-13.97-52.57-95.82,0-36.6,7.32-87.84,11.98-125.1,.67-8.65,1.33-15.3,1.33-22.62,0-8.65-.67-17.97-2-30.61,0-3.33-.67-5.99-.67-9.32,0-35.93,21.96-57.89,43.92-71.87,13.97-8.65,30.61-15.97,45.25-23.96,11.31-5.99,16.64-12.64,16.64-19.3v-2Z"/>
  </g>
</svg>