<?xml version="1.0" encoding="UTF-8"?>
<svg id="_レイヤー_2" data-name="レイヤー 2" xmlns="http://www.w3.org/2000/svg" viewBox="0 0 463.23 467.22">
  <defs>
    <style>
      .cls-1 {
        fill: #fff;
        stroke: #fff;
        stroke-miterlimit: 10;
        stroke-width: .75px;
      }
    </style>
  </defs>
  <g id="_レイヤー_1-2" data-name="レイヤー 1">
    <path class="cls-1" d="M395.64,.38c9.32,0,67.21,0,67.21,27.95,0,9.32-8.65,17.3-26.62,17.3-4.66,0-9.98,0-15.3-1.33-11.98-2-25.29-3.33-37.93-3.33-35.93,0-71.87,7.99-91.17,17.97-53.23,28.61-89.83,138.41-89.83,227.58,0,123.11,72.53,140.41,108.47,140.41,13.31,0,27.28-2,41.26-6.65,5.99-2,11.31-2.66,15.97-2.66,15.31,0,25.29,7.99,25.29,17.97,0,17.3-32.61,31.28-76.53,31.28-14.64,0-138.41-1.33-138.41-167.02,0-83.84,30.61-181,70.54-221.59,3.33-3.33,4.66-4.66,4.66-5.32s0-.67-.67-.67c-9.98,0-65.88,21.29-156.38,67.87-13.31,7.32-29.28,10.65-44.58,10.65C24.33,150.76,.38,139.45,.38,118.16c0-3.99,2-5.32,4.66-5.32,4.66,0,10.65,2.66,14.64,3.33,9.32,2,20.63,3.33,33.27,3.33,11.31,0,23.29-1.33,35.93-5.32,16.64-5.32,146.4-73.86,250.87-100.48,11.31-2.66,21.96-10.65,53.24-13.31h2.66Z"/>
  </g>
</svg>