<?xml version="1.0" encoding="UTF-8"?>
<svg id="_レイヤー_2" data-name="レイヤー 2" xmlns="http://www.w3.org/2000/svg" viewBox="0 0 16.69 25.31">
  <defs>
    <style>
      .cls-1 {
        fill: #fff;
      }
    </style>
  </defs>
  <g id="_レイヤー_1-2" data-name="レイヤー 1">
    <path class="cls-1" d="M10.81,19.64c2.42,.8,5.87,2.59,5.87,4.25,0,.46-.3,.8-.73,.8-.36,0-.8-.2-1.23-.76-.9-1.13-2.42-2.12-4.15-2.89-1,3.08-3.78,4.28-5.9,4.28-2.42,0-4.68-1.79-4.68-3.55,0-1.86,2.55-2.99,5.54-2.99,1.19,0,2.52,.17,3.82,.46v-.53c0-2.29-.76-4.61-1-6.27-.17-1.09-.2-2.19-.2-3.25,0-1.66,.1-3.28,.13-4.84v-.2c0-1.89-.46-2.82-1.33-2.82-.43,0-.66-.17-.66-.37,0-.4,.9-.96,1.43-.96,.86,0,2.55,1.13,2.55,2.36,0,.5-.17,1.06-.4,1.86-.17,.6-.33,1.26-.43,1.89,.43,.27,.96,.4,1.56,.4,.53,0,1.13-.1,1.72-.3,.53-.17,.73-.63,1.09-.76,.3-.1,.56-.17,.83-.17,1.23,0,1.39,.63,1.39,.93,0,1-2.95,1.43-4.31,1.43-.9,0-1.76-.2-2.39-.8-.1,.7-.17,1.46-.17,2.22,0,1.03,.1,2.12,.3,3.25,.3,1.66,1.33,4.31,1.33,6.9v.43Zm-5.8,.1c-2.82,0-3.98,1.29-3.98,2.09,0,.63,.73,1.82,3.85,1.82,1.69,0,3.71-1.33,4.28-3.18-1.39-.46-2.85-.73-4.15-.73Z"/>
  </g>
</svg>