<?xml version="1.0" encoding="UTF-8"?>
<svg id="_レイヤー_2" data-name="レイヤー 2" xmlns="http://www.w3.org/2000/svg" viewBox="0 0 37.39 37.73">
  <defs>
    <style>
      .cls-1 {
        fill: #fff;
        stroke: #fff;
        stroke-miterlimit: 10;
        stroke-width: .5px;
      }
    </style>
  </defs>
  <g id="_レイヤー_1-2" data-name="レイヤー 1">
    <path class="cls-1" d="M4.3,18.76c0,3.92-2.35,4.65-2.99,4.65s-1.07-.43-1.07-1.02c0-.38,.21-.85,.68-1.32,1.92-1.75,1.83-4.35,2.09-6.14,.04-.26,.08-.34,.17-.34,.21,0,1.11,1.79,1.11,4.18ZM35.22,2.94c0,.55-.77,.81-1.19,1.02s-.64,.51-.64,1.96c0,1.32,.21,2.56,.26,3.62v.04c0,.72-.68,1.19-1.28,1.19-.43,0-.85-.26-.85-.9v-.85H6.43v.64c0,.6-.72,1.02-1.32,1.02-.47,0-.9-.26-.9-.81v-.13c.13-1.28,.3-3.54,.3-5.37,0-.34-.04-1.92-.51-3.71-.04-.13-.04-.21-.04-.3s.04-.13,.09-.13c.51,0,2.43,.85,3.28,1.41l.21,.13H30.45c.21,0,.38-.09,.55-.26,.81-.94,1.15-.98,1.28-.98,.3,0,2.94,1.37,2.94,2.39Zm-21.62-.04H7.46l-.43,.3c-.68,.43-.64,.13-.68,1.28v1.15c0,.85,0,1.58,.04,2.3h7.25c.04-.94,.08-2.47,.08-3.16s-.04-1.15-.13-1.88Zm-4.73,10.71c-.09,2.47-.17,5.03-.17,8.23,0,3.71,.08,8.23,.3,14.25v.08c0,.73-.73,1.32-1.49,1.32-.55,0-1.07-.34-1.07-1.19v-.08c.26-6.23,.47-10.75,.47-15.4,0-1.15,0-2.35-.04-3.54v-.38c0-5.16-.13-6.01-.26-6.74-.04-.17-.04-.26-.04-.3s0-.04,.04-.04c.64,0,3.88,.51,3.88,1.41,0,.21-.17,.47-.64,.68-.72,.38-.9,.17-.98,1.71Zm5.25,4.22c0,.77-.51,1.32-1.07,1.32-.43,0-.85-.26-1.19-.98-.6-1.19-1.71-2.6-2.43-3.5-.13-.13-.17-.21-.17-.26,0-.09,.04-.09,.13-.09,.3,0,4.73,1.19,4.73,3.5Zm23.03,16.42c0,.21-.17,.34-.81,.34H19.02v.73c0,1.19-1.11,1.75-1.54,1.75-.51,0-.9-.38-.9-1.28v-.34c.26-2.73,.64-11.17,.68-12.67,0-.21,.04-2.52,.04-4.09-2.82,3.54-4.91,5.29-5.42,5.29-.17,0-.26-.08-.26-.17s.04-.17,.21-.34c2.05-2.05,6.87-8.36,7.38-12.96,.04-.38,0-.51,.08-.51,.13,0,3.88,1.41,3.88,2.43,0,.34-.64,.51-1.24,.51q-.68,0-1.07,.6c-.6,.94-1.24,2-2,3.07l.51,.13,.34,.08h4.86c.47-1.15,1.32-3.07,1.45-3.5,.34-1.24,.6-2.13,.64-2.73,0-.43,.08-.43,.13-.43,.34,0,3.62,1.11,3.62,1.83,0,.26-.43,.43-1.07,.6-.6,.13-.85,.43-1.15,.85-.17,.21-1.54,2.09-2.56,3.37h4.82c.09,0,.38-.08,.51-.3,1.07-1.71,1.71-1.71,1.79-1.71,.68,0,3.37,1.96,3.37,2.73,0,.21-.17,.34-.81,.34h-8.15c.04,.08,.08,.13,.08,.21,0,.26-.47,.51-.81,.6-.3,.04-.3,.43-.3,.85v2.35h2.86c.08,0,.38-.13,.51-.34,.13-.21,1.02-1.54,1.66-1.54,.3,0,3.03,1.71,3.03,2.56,0,.21-.17,.38-.85,.38h-7.25v4.39h2.9c.08,0,.38-.13,.51-.34,.77-1.24,1.19-1.62,1.62-1.62,.55,0,3.07,1.83,3.07,2.64,0,.21-.17,.38-.85,.38h-7.25c0,1.75,.04,3.5,.04,5.12h5.2c.09,0,.34-.09,.47-.3,.04-.09,1.15-1.88,1.75-1.88,.9,0,3.54,2,3.54,2.9ZM22.38,4.94c0-.64-.04-1.36-.13-2.05h-5.71c.13,.08,.21,.17,.21,.3,0,.3-.43,.6-.9,.68-.26,.04-.26,.38-.26,.85,0,.43-.04,.81-.04,1.15,0,1.02,.09,1.58,.09,2.05h6.74v-2.99Zm2,18h-5.5v4.39h5.46c0-2,.04-3.8,.04-4.35v-.04Zm-.17-5.08h-4.35c-.08,.04-.17,.13-.3,.17-.6,.26-.64,.47-.64,3.84h5.5c0-1.19-.04-2.9-.21-4.01Zm-5.29,10.53c0,1.88,0,3.67,.04,5.12h5.33c0-1.24,.04-3.2,.04-5.12h-5.42ZM31.55,6.65c0-1.19-.04-2.43-.08-3.41,0,0-.17-.34-.43-.34h-5.84c.17,.08,.21,.21,.21,.3,0,.3-.38,.6-.85,.68-.26,.04-.3,.38-.3,.85,0,1.49,.04,2.47,.09,3.2h7.21v-1.28Z"/>
  </g>
</svg>