<?xml version="1.0" encoding="UTF-8"?>
<svg id="_レイヤー_2" data-name="レイヤー 2" xmlns="http://www.w3.org/2000/svg" viewBox="0 0 27.96 22.69">
  <defs>
    <style>
      .cls-1 {
        fill: #fff;
      }
    </style>
  </defs>
  <g id="_レイヤー_1-2" data-name="レイヤー 1">
    <path class="cls-1" d="M3.28,10.18c-.76,0-2.55-.33-2.55-2.46,0-.66,.07-.9,.23-.9,.13,0,.3,.2,.53,.5,.5,.66,1.29,.86,2.12,.86,1.56,0,3.08-.46,4.54-.96,.43-1.29,.7-2.85,.7-3.88s-.26-1.76-1.09-1.89c-.33-.07-.66-.23-.66-.5,0-.33,1.06-.96,1.89-.96,1.36,0,1.66,1.49,1.66,2.09,0,.93-.53,3.02-1.03,4.31-.03,.13-.1,.26-.17,.4,.76-.26,1.46-.5,2.22-.5,3.18,0,3.25,4.01,3.25,5.44,0,6.87-3.92,10.38-7.13,10.38-.53,0-1.03-.1-1.43-.23-1.23-.43-.86-1.62-1.09-2.52-.13-.5-.2-.83-.2-1.03,0-.13,.03-.2,.1-.2,.13,0,.4,.3,.83,.9,.6,.86,1.43,1.43,2.39,1.43,2.92,0,5.08-4.71,5.08-9.22,0-2.59-.73-3.98-2.02-3.98-.63,0-.96,.1-2.62,1.09-1.53,3.52-4.18,8.79-6.27,12.67-.46,.8-1.33,1.66-1.99,1.66-.33,0-.56-.2-.56-.6,0-.53,.4-1.26,.83-1.92,1.33-1.99,4.94-7.26,6.73-11.41-2.82,1.29-3.68,1.43-4.28,1.43Zm20.3,5.08c-.2-.1-.6-.1-1.26-.1-2.36,0-2.85,0-2.85-.17,0-.1,.33-.2,.83-.3,1.43-.3,3.91-.53,3.91-2.65,0-2.72-2.82-3.62-4.54-4.25-.73-.26-1-.43-1-.5s.17-.1,.4-.1c4.18,0,7.03,2.65,7.03,5.17,0,1.89-1.19,2.99-2.06,2.99-.17,0-.33-.03-.46-.1Zm-.56-9.62c-1-.96-2.26-1.59-3.18-2.02-.2-.1-.5-.2-.5-.27,0-.2,1.29-.2,1.36-.2,1.89,0,3.88,.6,3.88,1.99,0,.5-.33,.9-.76,.9-.23,0-.53-.13-.8-.4Zm3.38-1.89c-1.03-.93-2.29-1.53-3.25-1.92-.23-.1-.53-.17-.53-.27,0-.13,.83-.23,1.59-.23,2.92,0,3.75,1.19,3.75,1.96,0,.46-.3,.83-.76,.83-.23,0-.5-.1-.8-.37Z"/>
  </g>
</svg>