<?xml version="1.0" encoding="UTF-8"?>
<svg id="_レイヤー_2" data-name="レイヤー 2" xmlns="http://www.w3.org/2000/svg" viewBox="0 0 39.48 38.88">
  <defs>
    <style>
      .cls-1 {
        fill: #fff;
        stroke: #fff;
        stroke-miterlimit: 10;
        stroke-width: .5px;
      }
    </style>
  </defs>
  <g id="_レイヤー_1-2" data-name="レイヤー 1">
    <path class="cls-1" d="M39.23,15.09c0,.26-.21,.47-.94,.47h-13.39c-2.3,2.17-4.65,4.09-6.95,5.8h10.88c.3,0,.43-.04,.55-.17,.85-.85,1.02-.94,1.19-.94,.34,0,2.99,1.45,2.99,2.3,0,.47-.6,.68-.94,.9-.9,.51-.9,.55-.9,3.54s.13,7.55,.3,10.02v.08c0,.68-.72,1.15-1.32,1.15-.51,0-.94-.26-.94-.94v-1.54h-13.22v1.75c0,.64-.77,1.11-1.41,1.11-.47,0-.85-.26-.85-.81v-.13c.43-4.01,.47-10.28,.51-12.37,0-.09-.04-.77-.09-1.71C8.14,27.84,1.49,29.89,.42,29.89c-.13,0-.17-.04-.17-.09,0-.17,.55-.51,.98-.68,3.92-1.45,8.57-3.92,13.35-7.34-.04-.64-.13-1.28-.21-1.75,0-.08-.04-.17-.04-.21,0-.08,.04-.13,.09-.13,.13,0,.94,.34,1.92,.81,1.96-1.49,3.97-3.16,5.89-4.95h-5.37c-2.39,0-7.76,.08-11.56,.47h-.04c-.77,0-1.96-1.66-1.96-2.22,4.39,.51,11.3,.68,13.78,.68h.85c0-1.96,.04-4.52,.04-6.06h-1.11c-2.13,0-4.48,.04-8.1,.43h-.04c-.73,0-1.83-1.62-1.83-2.13,4.18,.51,7.89,.64,10.11,.64h.98c0-3.92-.13-5.42-.47-6.78-.04-.13-.04-.21-.04-.26s0-.08,.04-.08c.3,0,4.22,.55,4.22,1.45,0,.34-.38,.64-.77,.9q-1.11,.72-1.11,4.78h1.66c.13,0,.43-.13,.55-.34,.43-.6,1.45-1.88,1.88-1.88,.08,0,.17,0,.26,.04,1.32,.51,3.24,2.05,3.24,2.81,0,.26-.21,.43-.9,.43h-6.7v6.06h3.5c3.03-2.94,5.97-6.31,8.57-10.02,.98-1.41,1.41-2.64,1.66-3.71,.04-.09,.04-.13,.13-.13,.43,0,3.92,1.83,3.92,2.64,0,.26-.26,.51-1.11,.73-1.15,.26-.98-.17-2.09,1.19-2.77,3.45-5.59,6.57-8.4,9.3h6.27c.3,0,.6-.17,.73-.38,.04-.08,1.54-2.47,2.3-2.47,.08,0,.17,0,.26,.04,1.41,.51,3.67,2.81,3.67,3.41Zm-22.65,13.69c-.04,1.71-.04,3.71-.04,5.93h13.26c.04-1.88,.04-4.01,.04-5.93h-13.26Zm13.14-5.97s-.08-.38-.47-.38h-11.69l-.17,.13c-.47,.3-.64,.43-.68,1.96l-.08,3.2h13.22c0-2.17-.04-4.01-.13-4.9Z"/>
  </g>
</svg>