<?xml version="1.0" encoding="UTF-8"?>
<svg id="_レイヤー_2" data-name="レイヤー 2" xmlns="http://www.w3.org/2000/svg" viewBox="0 0 25.87 26.6">
  <defs>
    <style>
      .cls-1 {
        fill: #fff;
      }
    </style>
  </defs>
  <g id="_レイヤー_1-2" data-name="レイヤー 1">
    <path class="cls-1" d="M7.96,8.76c-1.76,5.24-3.62,10.42-4.84,15.66-.2,.93-.8,2.19-1.66,2.19s-.93-1.06-.93-1.29c0-.5,.17-1.09,.56-1.72,.73-1.13,4.68-11.21,5.74-15.09-1.46,.36-2.12,.4-2.45,.4C.9,8.89,0,6.54,0,6.07c0-.13,.03-.17,.13-.17,.17,0,.46,.2,.63,.33,.5,.4,1.96,1.13,3.62,1.13,.93,0,2.09-.2,2.75-.37,.13-.73,.2-1.49,.2-2.16,0-1.23-.27-2.19-1.03-2.29-.5-.07-.86-.2-.86-.4,0-.3,.8-.76,1.39-.76,.7,0,1.99,.53,2.12,2.46,1.06,.33,1.83,.5,2.36,.6,.46,.1,.7,.46,.7,.8,0,1.46-3.12,2.59-3.85,2.85l-.2,.66Zm.66-2.26c.96-.43,1.76-1,1.76-1.36,0-.33-1-.83-1.43-1.03,0,.7-.1,1.53-.33,2.39Zm11.61,17.91c1.33,0,2.02,.43,2.02,.93,0,.33-.4,1.06-2.79,1.06-4.01,0-7.89-1.99-7.89-4.35,0-1.29,.86-1.96,1.03-1.96,.07,0,.1,.07,.1,.2s-.03,.33-.17,.56c-.1,.23-.17,.43-.17,.66,0,1.49,2.32,2.95,5.54,3.02,.6,0,1.23-.1,2.19-.13h.13Zm-2.52-11.58c-.17,.13-.27,.2-.33,.2s-.1-.07-.1-.13,.03-.2,.13-.3c.83-1,1.09-1.19,1.66-1.92,.23-.3,.7-.76,.7-1.19,0-.7-1.26-1.13-2.75-1.13-.27,0-.5,0-.63,.03-.17,.03-.33,.07-.46,.07-.23,0-.4-.07-.4-.17,0-.03,.56-.83,2.55-.83,2.79,0,5.31,1.53,5.31,2.19,0,.33-.37,.56-.66,.66-1.66,.46-2.92,.8-5.01,2.52Zm2.95-8.56c-.9-1.06-2.12-1.86-3.02-2.36-.2-.1-.5-.23-.5-.3s.36-.1,.76-.1c2.36,0,4.41,1.03,4.41,2.32,0,.53-.33,.9-.8,.9-.26,0-.56-.13-.86-.46Zm3.55-1.63c-.93-1.03-2.19-1.79-3.12-2.26-.2-.1-.5-.2-.5-.26,0-.03,.2-.13,.93-.13,2.82,0,4.35,1.13,4.35,2.22,0,.5-.36,.9-.83,.9-.23,0-.53-.13-.83-.46Z"/>
  </g>
</svg>