<?xml version="1.0" encoding="UTF-8"?>
<svg id="_レイヤー_2" data-name="レイヤー 2" xmlns="http://www.w3.org/2000/svg" viewBox="0 0 28.93 28.69">
  <defs>
    <style>
      .cls-1 {
        fill: #fff;
      }
    </style>
  </defs>
  <g id="_レイヤー_1-2" data-name="レイヤー 1">
    <path class="cls-1" d="M28.93,17.12c0,.2-.17,.43-.7,.43H10.95c-1.79,0-6.44,.07-9.32,.37h-.03c-.6,0-1.59-1.29-1.59-1.73,3.25,.4,8.92,.5,10.95,.5,.03-.86,.03-2.42,.03-4.11H6.4v.83c0,.5-.5,.93-1.03,.93-.4,0-.73-.23-.73-.8v-.1c.17-2.42,.26-3.78,.26-4.88,0-.3-.07-2.16-.36-3.42-.03-.1-.03-.17-.03-.23s.03-.1,.07-.1c.2,0,1.29,.43,2.59,1.29h3.82c0-.5,.03-.83,.03-.96V2.65c-1.92,0-5.51,.1-8.23,.37h-.03c-.6,0-1.59-1.29-1.59-1.73,3.32,.4,8.53,.5,10.38,.5h11.15c.2,0,.36-.1,.5-.27,1.13-1.36,1.29-1.53,1.53-1.53,.1,0,.17,.03,.23,.03,.9,.33,2.69,1.59,2.69,2.19,0,.23-.17,.43-.7,.43h-8.56c.07,.07,.07,.13,.07,.23,0,.13-.07,.27-.2,.33-.37,.2-.46,.13-.46,1.03v1.86h4.11c.17,0,.27-.07,.4-.2,.33-.4,.8-.76,1-.76,.33,0,2.42,1.03,2.42,1.82,0,.4-.53,.6-.86,.76-.27,.13-.66,.33-.66,1.43,0,1,.13,2.22,.23,3.85v.07c0,.63-.6,1.09-1.13,1.09-.33,0-.6-.2-.6-.7v-.07c0-.27,.03-.56,.03-.83h-4.94c0,1.76,0,3.28,.03,4.11h6c.2,0,.36-.13,.5-.27,.33-.37,.9-1.06,1.29-1.49,.07-.07,.2-.1,.3-.1s.17,.03,.23,.03c.27,.1,2.79,1.49,2.79,2.25ZM6.07,21.63c0,2.85-2.32,6.14-4.35,6.14-.66,0-1.03-.4-1.03-.93s.43-1.23,1.43-1.59c1.46-.56,2.92-2.36,3.75-4.25,.03-.07,.07-.07,.07-.07,.07,0,.1,.07,.1,.1,.03,.2,.03,.4,.03,.6ZM10.98,6.93h-3.62l-.33,.27c-.7,.46-.7,.5-.7,2.95,0,.46,.03,.96,.03,1.56h4.61V6.93Zm11.41,19.57c0,.33-.23,.7-.76,1.03-1.49,1.06-4.28,1.16-7.07,1.16-4.48,0-5.27-1.19-5.27-2.42v-.13c.07-1.06,.13-2.06,.13-3.12,0-.9-.03-2.06-.23-2.95-.03-.13-.07-.23-.07-.3,0-.03,.03-.07,.1-.07,.3,0,3.25,.43,3.25,1.19,0,.2-.23,.4-.6,.6-.83,.46-.86,.23-.96,1.29-.1,1.36-.13,1.36-.13,2.75,0,1.06,.17,1.69,4.51,1.69,3.68,0,4.38-.53,5.27-5.41,.03-.23,.07-.3,.13-.3,.23,0,.53,3.75,1.06,4.08,.43,.27,.63,.56,.63,.9ZM13,2.65c.07,.07,.1,.13,.1,.2,0,.13-.07,.23-.27,.36-.33,.17-.46,.13-.46,.8v.23c0,.23,.03,.93,.03,1.86h3.98v-.96c0-.27,.03-1.06,.03-1.89v-.6h-3.42Zm3.42,9.92h-4.05v4.11h4.05v-4.11Zm-.03-5.64h-3.98v4.78h4.01c0-1.72-.03-3.48-.03-4.78Zm1.82,15.39c0,.63-.33,1.06-.8,1.06-.4,0-.83-.27-1.23-1-.66-1.16-2.16-2.49-3.18-3.38-.2-.17-.3-.23-.3-.27h.03c1.09,0,5.47,1.36,5.47,3.58Zm4.51-11.48c0-1.23-.03-2.52-.07-3.65,0-.1-.1-.27-.2-.27h-4.68v4.78h4.94v-.86Zm5.84,14.56c0,.76-.46,1.33-1,1.33-.43,0-.93-.33-1.33-1.19-.96-2.02-2.59-3.45-4.18-4.74,0,0-.03-.03-.03-.07s.03-.07,.1-.07c.8,0,6.44,2.12,6.44,4.74Z"/>
  </g>
</svg>