<?xml version="1.0" encoding="UTF-8"?>
<svg id="_レイヤー_2" data-name="レイヤー 2" xmlns="http://www.w3.org/2000/svg" viewBox="0 0 36.62 38.24">
  <defs>
    <style>
      .cls-1 {
        fill: #fff;
        stroke: #fff;
        stroke-miterlimit: 10;
        stroke-width: .5px;
      }
    </style>
  </defs>
  <g id="_レイヤー_1-2" data-name="レイヤー 1">
    <path class="cls-1" d="M.25,35.56c0-.68,.55-1.49,1.83-1.96,1.88-.68,3.75-2.86,4.82-5.16,.04-.08,.08-.08,.08-.08,.09,0,.13,.08,.13,.13,.04,.26,.04,.51,.04,.77,0,4.05-3.41,7.51-5.54,7.51-.85,0-1.37-.51-1.37-1.19Zm31.05-12.07c0,.85-.81,1.45-1.45,1.45-.43,0-.81-.3-.81-.98v-1.54h-9.81c0,.9,.04,1.66,.04,2.13,0,.9-.73,1.54-1.32,1.54-.47,0-.9-.38-.9-1.24v-.13c0-.6,0-1.41,.04-2.3H7.76v1.54c0,.72-.77,1.19-1.41,1.19-.55,0-.98-.26-.98-.98v-.17c.26-2.86,.34-4.14,.34-5.59,0-.21-.13-2.47-.47-3.92-.04-.13-.04-.26-.04-.3q0-.08,.08-.08c.73,0,3.24,1.36,3.67,1.66h8.32c.04-1.37,.04-2.73,.04-4.01h-7.8v.51c0,.72-.85,1.15-1.41,1.15-.51,0-.94-.26-.94-.98v-.17c.26-2.73,.26-3.41,.3-5.08,0-2.13-.34-3.2-.38-3.41-.04-.17-.09-.26-.09-.3,0-.08,.04-.08,.09-.08,.68,0,3.54,1.62,3.58,1.66h6.57c-.08-1.28-.13-3.5-.38-4.48-.04-.13-.04-.21-.04-.26s0-.09,.08-.09c.64,0,4.22,.81,4.22,1.62,0,.26-.21,.47-.51,.64-1.07,.64-1.28,.08-1.32,1.96v.6h7.04c.17,0,.34,0,.55-.21,.26-.26,.55-.68,.85-.85,.13-.08,.26-.17,.43-.17,.13,0,.26,.04,.47,.17,.81,.38,2.52,1.37,2.52,2.18,0,.47-.6,.72-.94,.94-.64,.34-.9,.73-.9,1.24,0,.98,.08,1.62,.26,3.33v.13c0,.85-.9,1.37-1.41,1.37-.43,0-.81-.26-.81-.94v-.47h-8.1v4.01h8.79c.38,0,.51-.13,.55-.17,.3-.26,.55-.64,.85-.81,.13-.08,.26-.17,.43-.17,.13,0,3.11,1.32,3.11,2.26,0,.51-.64,.77-1.02,.98-.64,.34-.9,.72-.9,1.24,0,.98,.21,2.47,.26,4.35v.04Zm-14.07-6.61H8.87c-1.11,.55-1.11,.64-1.15,2.35v2.13h9.42l.08-4.48ZM10.57,6.14l-.21,.17c-.81,.51-.9,.51-.9,2.17v2.17h7.85c0-1.83,0-3.41-.04-4.52h-6.7Zm.72,28.62c.08-1.32,.17-2.69,.17-3.33,0-2.47-.09-3.11-.3-4.05-.04-.17-.08-.26-.08-.34,0-.04,.04-.04,.13-.04,.98,0,4.18,.64,4.18,1.28,0,.21-.3,.43-.77,.64-1.11,.51-1.15,.26-1.24,1.45-.13,1.41-.17,1.92-.17,3.67,0,1.37,.26,2.05,5.5,2.05s6.14-.34,7.38-6.82c.04-.26,.09-.38,.17-.38,.3,0,.68,4.82,1.36,5.25,.51,.34,.77,.68,.77,1.11,0,.94-1.28,2.77-10.28,2.77-5.08,0-6.82-1.11-6.82-3.07v-.17Zm5.08-7.93c.51,0,6.06,.81,6.06,3.5,0,.85-.55,1.49-1.19,1.49-.43,0-.94-.3-1.32-1.07-.6-1.11-2.13-2.56-3.24-3.46-.3-.26-.43-.34-.43-.43,0,0,.04-.04,.13-.04Zm2.86-20.68v4.52h8.1c0-.68,.04-1.32,.04-1.96,0-.85-.04-1.58-.08-2.22,0-.17-.17-.34-.26-.34h-7.8Zm9.81,11.09c0-.17-.21-.34-.3-.34h-9.51v4.48h9.81v-4.14Zm-1.02,10.88c0-.08,.04-.08,.17-.08,.38,0,8.19,2.39,8.19,5.76,0,.94-.6,1.66-1.32,1.66-.55,0-1.15-.43-1.66-1.45-1.19-2.47-3.2-4.26-5.33-5.8,0,0-.04-.04-.04-.08Z"/>
  </g>
</svg>