<?xml version="1.0" encoding="UTF-8"?>
<svg id="_レイヤー_2" data-name="レイヤー 2" xmlns="http://www.w3.org/2000/svg" viewBox="0 0 22.62 17.71">
  <defs>
    <style>
      .cls-1 {
        fill: #fff;
      }
    </style>
  </defs>
  <g id="_レイヤー_1-2" data-name="レイヤー 1">
    <path class="cls-1" d="M8.66,16.42c0,.37-.1,1.29-1.63,1.29-1.16,0-2.49-.7-3.32-1.43C.63,13.67,0,10.48,0,7.03c0-1.26,.1-2.55,.17-3.85,.03-.33,.03-.66,.03-.96C.2,1.59,.17,1.06,.07,.53c0-.1-.03-.17-.03-.23C.03,.1,.1,0,.23,0c.07,0,1.92,.46,1.92,2.79,0,.4-.07,.8-.13,1.13-.27,1.13-.5,2.69-.5,4.31,0,6.24,3.75,6.97,4.18,6.97,.53,0,.86-.3,1.09-.7,.66-1.16,1.43-3.22,1.99-4.51,.3-.66,.43-.9,.5-.9s.07,.07,.07,.2c0,.27-.1,.76-.13,.93-.13,.83-.53,2.29-.7,4.35v.37c0,.6,.1,.96,.13,1.39v.1Zm11.91-6.6c-.27-3.08-2.42-5.71-5.34-6.44-1-.23-1.46-.46-1.46-.6,0-.1,.23-.17,.63-.17,4.51,0,8.23,3.68,8.23,6.83,0,1.03-.56,1.56-1.09,1.56-.46,0-.9-.4-.96-1.19Z"/>
  </g>
</svg>