<?xml version="1.0" encoding="UTF-8"?>
<svg id="_レイヤー_2" data-name="レイヤー 2" xmlns="http://www.w3.org/2000/svg" viewBox="0 0 3.72 26.34">
  <defs>
    <style>
      .cls-1 {
        fill: #fff;
      }
    </style>
  </defs>
  <g id="_レイヤー_1-2" data-name="レイヤー 1">
    <path class="cls-1" d="M1.86,26.34c-1.03,0-1.86-.83-1.86-1.86s.83-1.89,1.86-1.89,1.86,.86,1.86,1.89-.83,1.86-1.86,1.86Zm.03-7.23c-.2,0-.4-.2-.4-.56-.03-1.19-.43-6.87-.96-11.15C.33,5.8,.1,3.78,.1,2.42,.1,1.56,.46,0,1.89,0s1.79,1.59,1.79,2.42c0,1.36-.27,3.38-.43,4.98-.46,4.15-.93,9.92-.96,11.15-.03,.37-.23,.56-.4,.56Z"/>
  </g>
</svg>