<?xml version="1.0" encoding="UTF-8"?>
<svg id="_レイヤー_2" data-name="レイヤー 2" xmlns="http://www.w3.org/2000/svg" viewBox="0 0 13.3 27.6">
  <defs>
    <style>
      .cls-1 {
        fill: #fff;
      }
    </style>
  </defs>
  <g id="_レイヤー_1-2" data-name="レイヤー 1">
    <path class="cls-1" d="M8.56,15.89c-2.82,0-7.26,2.75-7.26,5.84,0,1.63,1.13,4.01,5.37,4.01,1.49,0,3.18-.3,4.58-1.03,.33-.17,.63-.23,.9-.23,.7,0,1.16,.43,1.16,.96,0,1.33-3.12,2.16-5.84,2.16-5.91,0-7.46-3.78-7.46-5.57,0-2.72,2.42-5.51,6-7.1-1.76-.8-2.22-2.65-2.22-4.61,0-1.76,.37-3.65,.53-4.98,.1-.83,.17-1.53,.17-2.06,0-1.26-.43-1.83-2.02-2.16-.17-.03-.3-.17-.3-.33,0-.3,.53-.8,1.26-.8,1.29,0,3.02,1.56,3.02,3.08,0,.6-.2,1.23-.33,1.89-.33,1.49-.96,3.81-.96,5.64,0,2.02,.83,3.25,2.72,3.62,1.49-.53,1.86-.6,2.46-.6,1.13,0,1.36,.5,1.36,.86,0,.63-.8,1.43-2.39,1.43-.13,0-.3-.03-.43-.03h-.3Z"/>
  </g>
</svg>